<svg id="logo" xmlns="http://www.w3.org/2000/svg" width="85" height="85" viewBox="0 0 85 85">
  <defs>
    <style>
      .cls-1 {
        fill: #347b60;
      }

      .cls-1, .cls-2, .cls-3 {
        fill-rule: evenodd;
      }

      .cls-2 {
        fill: #87caa2;
      }

      .cls-3 {
        fill: #4eab74;
      }
    </style>
  </defs>
  <path id="cam3" class="cls-1" d="M42,40A37.608,37.608,0,0,1,53,30c8.937-5.3,15.934-5.353,19-4,6.429,2.837,8.469,9.935,9,13,0.713,4.116-1.265,13.711-10,24-8.178,9.633-19.282,16.322-32,20a36,36,0,0,0,9-16c2.245-8.773,1.284-15.191-1-20A24.734,24.734,0,0,0,42,40Z"/>
  <path id="cam1" class="cls-2" d="M39,83A73.611,73.611,0,0,0,52,65c3.684-7.261,4.624-13.051,4-17-0.592-3.747-2.624-8.7-8-14-4.768-4.7-11.868-9.008-20-9-10.115.01-19.716,6.162-25,16a78.128,78.128,0,0,1,12-1c10.228-.056,17.965,2.662,21,5a21.825,21.825,0,0,1,6,7c1.454,2.74,3.133,10.546,1,20A46.743,46.743,0,0,1,39,83Z"/>
  <path id="cam2" class="cls-3" d="M37,45A41.743,41.743,0,0,1,48,34a25.12,25.12,0,0,1,8,15c0.422,3.353-.816,10.361-5,18A71.449,71.449,0,0,1,39,83a49.824,49.824,0,0,0,4-11c1.882-8.039.951-15.477,0-18A24.506,24.506,0,0,0,37,45Z"/>
  <path id="bola" class="cls-1" d="M36,13a11.511,11.511,0,0,1,23,0A11.511,11.511,0,1,1,36,13Z"/>
</svg>
